<svg xmlns="http://www.w3.org/2000/svg" viewBox="0 0 895.634 379.124" preserveAspectRatio="xMidYMid meet">
    <defs>
        <linearGradient x1="0" y1="0" x2="1" y2="0" gradientUnits="userSpaceOnUse"
                        gradientTransform="scale(-622.77 622.77) rotate(-58 .823 9.36)" spreadMethod="pad" id="b">
            <stop offset="0" stop-color="#ed1c24"/>
            <stop offset=".485" stop-color="#ed1c24"/>
            <stop offset="1" stop-color="#771519"/>
        </linearGradient>
        <linearGradient x1="0" y1="0" x2="1" y2="0" gradientUnits="userSpaceOnUse"
                        gradientTransform="scale(2313.58 -2313.58) rotate(39.623 2.613 1.038)" spreadMethod="pad"
                        id="d">
            <stop offset="0" stop-color="#ed1c24"/>
            <stop offset="1" stop-color="#771519"/>
        </linearGradient>
        <linearGradient x1="0" y1="0" x2="1" y2="0" gradientUnits="userSpaceOnUse"
                        gradientTransform="scale(-635.954 635.954) rotate(-60 1.053 8.817)" spreadMethod="pad" id="f">
            <stop offset="0" stop-color="#ed1c24"/>
            <stop offset=".485" stop-color="#ed1c24"/>
            <stop offset="1" stop-color="#771519"/>
        </linearGradient>
        <linearGradient x1="0" y1="0" x2="1" y2="0" gradientUnits="userSpaceOnUse"
                        gradientTransform="scale(2313.73 -2313.73) rotate(39.623 2.597 1.033)" spreadMethod="pad"
                        id="h">
            <stop offset="0" stop-color="#ed1c24"/>
            <stop offset="1" stop-color="#771519"/>
        </linearGradient>
        <clipPath clipPathUnits="userSpaceOnUse" id="a">
            <path d="M4658.16 2542.77v1060.64l-68.09-47.04v-960.35"/>
        </clipPath>
        <clipPath clipPathUnits="userSpaceOnUse" id="c">
            <path d="M3181.84 3447.06l1375.52-948.89h100.8v5.53L3120.75 3564.29V2498.17h61.09z"/>
        </clipPath>
        <clipPath clipPathUnits="userSpaceOnUse" id="e">
            <path d="M4544.34 3532.5L3887.45 3079l656.89-447.73z"/>
        </clipPath>
        <clipPath clipPathUnits="userSpaceOnUse" id="g">
            <path d="M4459.89 2507.8l-1230.93 849.09v-853.45h1231.05z"/>
        </clipPath>
    </defs>
    <path d="M268.113 355.63l-.248 4.065c-1.964 1.257-4.139 2.184-6.526 2.786-2.385.602-4.912.895-7.578.895-6.944 0-12.406-2.055-16.384-6.164-3.979-4.112-5.964-9.679-5.964-16.71 0-6.927 2.301-12.42 6.909-16.49 4.403-3.885 10.096-5.825 17.083-5.825 4.792 0 9.32.968 13.578 2.908-.249.646-.489 1.384-.717 2.217-.227.84-.41 1.7-.555 2.59l-.497.154c-1.179-1.528-3.039-2.859-5.581-3.997-2.17-.995-4.327-1.484-6.478-1.484-5.58 0-9.96 2.013-13.142 6.041-2.915 3.677-4.372 8.399-4.372 14.17 0 6.095 1.566 10.958 4.697 14.598 3.13 3.633 7.237 5.45 12.32 5.45 2.276 0 4.639-.458 7.1-1.393 2.46-.926 4.577-2.197 6.355-3.812M318.274 356.004v-9.27l-2.292.374c-3.761.761-6.088 1.363-6.975 1.792-2.542 1.14-3.813 2.961-3.813 5.459 0 1.984.539 3.473 1.612 4.462 1.075.995 2.613 1.494 4.617 1.494.89 0 1.808-.232 2.759-.699.952-.47 1.717-1.033 2.295-1.69.352-.271.737-.614 1.162-1.04.424-.42.635-.715.635-.882zm5.083-13.58v14.721l-.122.903c0 .847.102 1.461.31 1.841.206.388.65.58 1.332.58l2.014-.408v1.394c-.537.314-1.166.53-1.89.653l-2.294.25c-1.218 0-2.201-.294-2.944-.885-.742-.59-1.2-1.606-1.364-3.052l-.497.653c-2.728 2.709-5.868 4.058-9.421 4.058-2.356 0-4.36-.737-6.015-2.204-1.655-1.463-2.481-3.354-2.481-5.673 0-2.498.732-4.434 2.185-5.808 1.46-1.375 4.667-2.487 9.627-3.334 2.15-.349 3.565-.632 4.245-.836 1.655-.557 2.481-1.674 2.481-3.35 0-2.376-.636-4.22-1.906-5.532-1.271-1.315-3.138-1.968-5.596-1.968-2.066 0-3.843.552-5.332 1.642-1.176.85-1.892 1.782-2.136 2.787h-.776v-3.53c1.653-1.158 3.305-2.038 4.96-2.653 1.652-.606 3.428-.913 5.33-.913 6.863 0 10.29 3.555 10.29 10.664M358.886 325.903l5.085-2.014v8.246h6.727l-.127 1.393.127 1.025h-6.727v15.992l-.125 2.167c0 3.128.445 5.305 1.333 6.545.764 1.058 1.922 1.578 3.472 1.578.558 0 1.102-.063 1.628-.186.527-.12.966-.236 1.318-.334v1.546c-.847.331-1.762.627-2.744.886-.982.255-1.846.385-2.588.385-2.502 0-4.331-.62-5.488-1.86-1.342-1.427-2.014-3.815-2.014-7.159l.123-1.025v-18.535h-3.935c.083-.252.122-.634.122-1.148 0-.601-.039-1.026-.122-1.27h3.935v-6.232M405.698 344.843h16.896c0-3.224-.528-5.766-1.581-7.626-1.323-2.296-3.42-3.442-6.294-3.442-2.789 0-5.03 1.172-6.724 3.505-1.533 2.107-2.297 4.628-2.297 7.563zm20.459 11.161l-.122 3.315a22.44 22.44 0 01-5.241 2.789 16.296 16.296 0 01-5.703 1.024c-4.485 0-8.101-1.401-10.848-4.199-2.75-2.801-4.122-6.65-4.122-11.55 0-4.584 1.228-8.292 3.686-11.128 2.624-2.995 6.262-4.495 10.912-4.495 3.555 0 6.522 1.167 8.896 3.504 2.624 2.563 3.939 6.139 3.939 10.724v1.396c-1.488 0-3.96-.05-7.41-.14-3.45-.095-5.258-.136-5.425-.136h-9.021l-.123 1.27c0 3.389.986 6.225 2.959 8.508 1.975 2.285 4.719 3.429 8.232 3.429 1.901 0 3.779-.51 5.64-1.524 1.179-.62 2.428-1.547 3.75-2.787M460.294 362.603v-30.468c.643.08 1.084.142 1.333.184.248.045.651.06 1.21.06l2.541-.244v6.353l.248-.773c1.18-1.779 2.387-3.175 3.625-4.187 1.468-1.177 2.927-1.768 4.372-1.768.726 0 1.406.124 2.047.375l-.899 5.328c-1.012-.331-2.026-.667-3.038-1.019-1.695 0-3.05.516-4.062 1.547-.992 1.18-1.621 2.316-1.89 3.412-.268 1.093-.403 2.666-.403 4.71v16.49l-2.541-.244c-.476 0-.838.008-1.083.03-.25.019-.735.092-1.46.214M513.74 332.135v30.468l-2.54-.244c-.457 0-.813.008-1.071.03-.259.019-.738.092-1.44.214v-30.468c.621.08 1.058.142 1.316.184.258.045.657.06 1.196.06zm.651-10.787c0 .847-.32 1.583-.961 2.216-.64.628-1.383.945-2.23.945-.889 0-1.66-.304-2.31-.916a2.945 2.945 0 01-.976-2.245c0-.89.324-1.664.976-2.328.65-.661 1.421-.995 2.31-.995.847 0 1.59.326 2.23.966.641.638.961 1.425.961 2.357M550.914 362.603v-30.468c.639.08 1.083.142 1.332.184.25.045.653.06 1.21.06l2.543-.244v5.856c1.092-2.003 2.51-3.542 4.243-4.618 1.737-1.074 3.71-1.613 5.923-1.613 3.636 0 6.256 1.012 7.856 3.039 1.602 2.025 2.402 5.156 2.402 9.393v18.41l-2.542-.243c-.454 0-.811.008-1.068.03-.258.019-.748.092-1.472.214v-17.018c0-3.388-.426-5.857-1.272-7.412-1.095-2.085-3.036-3.13-5.828-3.13-3.119 0-5.323 1.152-6.602 3.445-1.096 1.94-1.64 5.035-1.64 9.27v14.845l-2.544-.244c-.474 0-.837.008-1.086.03-.246.019-.734.092-1.455.214M615.395 341.772l-.124.652c0 2.192.635 4.07 1.906 5.643 1.27 1.57 2.97 2.357 5.098 2.357 2.23 0 3.975-.8 5.223-2.388 1.25-1.592 1.876-3.543 1.876-5.857 0-2.664-.505-4.722-1.519-6.172-1.136-1.651-2.912-2.479-5.333-2.479-2.252 0-4.001.755-5.25 2.265-1.255 1.506-1.877 3.5-1.877 5.979zm7.874 20.213c-6.511 0-9.764 2.53-9.764 7.595 0 2.498.825 4.396 2.477 5.69 1.655 1.286 3.876 1.933 6.667 1.933 2.704 0 4.949-.59 6.725-1.77 2.19-1.44 3.284-3.56 3.284-6.353 0-2.953-.947-4.953-2.85-6.01-1.303-.725-3.48-1.085-6.54-1.085zm13.482-29.973v2.415l-7.005-.652c1.405 1.081 2.5 2.313 3.283 3.708.788 1.39 1.181 2.958 1.181 4.696 0 3.284-1.333 5.794-3.996 7.53-2.42 1.574-5.625 2.355-9.613 2.355h-1.147c-.89 0-1.601.177-2.136.527-.848.497-1.27 1.345-1.27 2.54 0 1.264.462 2.081 1.393 2.466.926.384 2.501.574 4.71.574h4.063c7.355 0 11.035 2.83 11.035 8.497 0 3.677-1.498 6.672-4.479 8.987-2.987 2.318-6.868 3.469-11.643 3.469-3.016 0-5.6-.724-7.749-2.167-2.543-1.693-3.812-4.062-3.812-7.096 0-2.218.581-3.956 1.752-5.224 1.167-1.273 2.787-2.112 4.852-2.53v-.522c-1.097-.253-1.943-.677-2.544-1.27-.845-.891-1.27-2.205-1.27-3.943 0-1.381.403-2.516 1.21-3.407.599-.638 1.633-1.325 3.101-2.044-2.029-.936-3.502-2.05-4.434-3.352-1.098-1.529-1.646-3.409-1.646-5.642 0-3.139.914-5.574 2.73-7.314 2.026-1.904 5.092-2.853 9.205-2.853h.87l8.773.375 1.765.122c.475 0 .988-.032 1.536-.094.547-.06.975-.115 1.285-.151"
          fill="#4f4c4c"/>
    <g clip-path="url(#a)" transform="matrix(.13333 0 0 -.13333 -71.793 480.455)">
        <path d="M4658.16 2542.77v1060.64l-68.09-47.04v-960.35" fill="url(#b)"/>
    </g>
    <g clip-path="url(#c)" transform="matrix(.13333 0 0 -.13333 -71.793 480.455)">
        <path d="M3181.84 3447.06l1375.52-948.89h100.8v5.53L3120.75 3564.29V2498.17h61.09v948.89" fill="url(#d)"/>
    </g>
    <g clip-path="url(#e)" transform="matrix(.13333 0 0 -.13333 -71.793 480.455)">
        <path d="M4544.34 3532.5L3887.45 3079l656.89-447.73z" fill="url(#f)"/>
    </g>
    <g clip-path="url(#g)" transform="matrix(.13333 0 0 -.13333 -71.793 480.455)">
        <path d="M4459.89 2507.8l-1230.93 849.09v-853.45h1231.05l-.12 4.36" fill="url(#h)"/>
    </g>
    <path d="M14.24 202.865v73.874c0 1.877.299 3.224.894 4.021.596.804 1.765 1.437 3.508 1.89v2.206H0v-2.207c1.79-.452 2.97-1.072 3.543-1.85.574-.782.86-2.139.86-4.06v-77.663c0-1.923-.298-3.283-.894-4.087-.595-.806-1.765-1.413-3.509-1.824v-2.205h26.965v2.205c-2.155.73-3.233 1.768-3.233 3.095 0 .92 1.078 2.639 3.233 5.155l56.54 66.176v-68.515c0-1.923-.298-3.283-.894-4.087-.598-.806-1.765-1.413-3.509-1.824v-2.205h18.64v2.205c-1.741.411-2.91 1.018-3.505 1.824-.599.804-.898 2.164-.898 4.087v77.663c0 1.921.299 3.278.898 4.06.594.778 1.764 1.398 3.505 1.85v2.207H76.075v-2.207c2.11-.544 3.164-1.484 3.164-2.814 0-1.008-.962-2.662-2.886-4.956L14.24 202.865M199.129 215.04l-9.422 15.132-1.584-.965c.459-1.608.69-2.682.69-3.235 0-1.19-2.178-3.043-6.536-5.568-7.06-3.99-14.56-5.984-22.491-5.984-9.721 0-17.792 2.797-24.212 8.39-7.155 6.19-10.73 14.194-10.73 24.006 0 9.305 3.278 16.92 9.835 22.839 6.468 5.912 14.995 8.873 25.588 8.873 5.32 0 10.387-.795 15.202-2.379 4.816-1.577 8.896-3.768 12.244-6.569v-14.17h-17.335c-1.923 0-3.29.302-4.09.897-.805.596-1.414 1.768-1.825 3.512h-1.857v-16.375h1.857c.411 1.788 1.02 2.984 1.824 3.58.802.597 2.168.892 4.091.892h30.403v1.859c-1.787.413-2.98 1.02-3.576 1.824-.596.798-.894 2.168-.894 4.089v7.98c0 1.927.298 3.292.894 4.095.596.798 1.789 1.405 3.576 1.817v1.585c-11.923 10.227-25.795 15.342-41.615 15.342-12.472 0-22.697-3.347-30.676-10.044-4.267-3.62-7.613-7.982-10.044-13.071-2.612-5.41-3.92-11.027-3.92-16.852 0-8.62 2.613-16.392 7.841-23.319 4.676-6.145 10.891-10.664 18.642-13.548 5.777-2.156 11.969-3.234 18.57-3.234 5.686 0 10.879.686 15.579 2.061 4.699 1.376 10.33 3.832 16.887 7.361 1.056.552 1.81.83 2.272.83.549 0 1.626-.922 3.232-2.758l1.58 1.107M227.743 215.585v39.555c0 6.099.299 10.301.898 12.623.594 2.317 1.9 4.249 3.92 5.809 4.125 3.301 11.188 4.956 21.182 4.956 11.052 0 18.527-2.024 22.424-6.055 1.423-1.51 2.364-3.382 2.822-5.606.457-2.223.689-6.134.689-11.727v-39.555c0-1.88-.3-3.217-.895-4.021-.596-.804-1.765-1.43-3.509-1.89v-1.86h16.99v1.86c-1.743.46-2.911 1.073-3.507 1.854-.596.779-.894 2.135-.894 4.057v41.552c0 7.06-.598 12.031-1.789 14.924-2.016 4.948-5.71 8.596-11.076 10.932-5.363 2.342-12.748 3.514-22.148 3.514-13.481 0-22.927-2.498-28.337-7.503-2.612-2.38-4.37-5.065-5.262-8.041-.894-2.984-1.342-7.595-1.342-13.826v-41.552c0-1.922-.298-3.278-.894-4.057-.597-.781-1.768-1.395-3.508-1.855v-1.86h18.64v1.86c-1.742.46-2.912 1.087-3.506 1.891-.599.804-.898 2.141-.898 4.021M343.095 250.873v26.21c0 1.877.286 3.224.86 4.02.574.805 1.752 1.437 3.543 1.89v1.863h-18.639v-1.863c1.74-.453 2.91-1.085 3.506-1.89.594-.796.896-2.143.896-4.02v-26.21l-23.732-30.953c-2.888-3.808-5.022-6.33-6.398-7.565-1.374-1.239-3.005-2.135-4.882-2.682v-1.86h21.736v1.86c-2.022.318-3.027 1.191-3.027 2.615 0 1.283.619 2.727 1.857 4.328l20.29 26.623 18.366-26.548c1.283-1.886 1.928-3.303 1.928-4.267 0-1.56-1.034-2.475-3.098-2.75v-1.86h20.085v1.86c-2.063.687-3.967 1.866-5.71 3.542-1.743 1.675-4.125 4.616-7.151 8.839l-20.43 28.818M398.189 248.812v28.55h47.6c1.926 0 3.289-.303 4.094-.9.8-.595 1.408-1.786 1.82-3.578h1.928v16.373h-1.928c-.412-1.745-1.006-2.914-1.786-3.513-.78-.595-2.134-.888-4.059-.888h-61.905v-1.863c1.789-.453 2.968-1.085 3.541-1.89.575-.796.86-2.143.86-4.02v-61.498c0-1.922-.297-3.278-.893-4.057-.599-.781-1.767-1.395-3.508-1.855v-1.86h61.424c1.924 0 3.277-.296 4.057-.889.78-.596 1.4-1.77 1.857-3.513h1.858v16.373h-1.858c-.457-1.785-1.077-2.984-1.857-3.579-.78-.596-2.133-.889-4.057-.889h-47.188v25.999h30.058c1.928 0 3.279-.302 4.063-.896.776-.596 1.396-1.762 1.856-3.506h1.857v16.368h-1.857c-.46-1.788-1.09-2.978-1.893-3.574-.803-.596-2.144-.895-4.026-.895H398.19M480.527 219.85v57.233c0 1.877.286 3.224.859 4.02.572.805 1.753 1.437 3.543 1.89v1.863h-16.991v-1.863c1.79-.453 2.968-1.085 3.543-1.89.573-.796.86-2.143.86-4.02v-61.498c0-1.922-.299-3.278-.894-4.057-.6-.781-1.768-1.395-3.509-1.855v-1.86h25.036v1.86c-2.384.779-3.576 1.971-3.576 3.572 0 1.38.872 3.027 2.616 4.956l45.465 50.899v-53.515c0-1.922-.3-3.278-.896-4.057-.596-.781-1.762-1.395-3.508-1.855v-1.86h16.992v1.86c-1.744.46-2.913 1.074-3.509 1.855-.595.779-.892 2.135-.892 4.057v61.498c0 1.877.285 3.224.857 4.02.574.805 1.754 1.437 3.544 1.89v1.863H529.91v-1.863c2.387-.593 3.576-1.533 3.576-2.814 0-.967-1.097-2.686-3.299-5.159l-49.66-55.17M583.835 275.91h33.911c9.953 0 17.333-1.534 22.152-4.606 5.684-3.67 9.855-9.287 12.516-16.852 1.743-5.045 2.613-10.57 2.613-16.58 0-10.91-2.776-19.948-8.321-27.1-3.073-3.941-6.808-6.74-11.213-8.392-4.403-1.652-10.318-2.475-17.747-2.475h-33.91zm-10.797 1.795V198.12c0-1.38-.32-2.432-.963-3.168-.642-.731-1.788-1.326-3.44-1.786v-2.205h49.524c11.235 0 19.834 1.56 25.798 4.679 7.516 3.898 13.25 9.908 17.19 18.024 3.443 7.109 5.16 15.177 5.16 24.209 0 10.688-2.313 19.901-6.946 27.65-4.175 6.883-9.459 11.826-15.854 14.826-6.397 3.003-14.848 4.508-25.348 4.508h-49.524v-2.207c1.652-.452 2.798-1.054 3.44-1.782.643-.732.963-1.79.963-3.162M686.946 277.083v-61.498c0-1.922-.299-3.278-.893-4.057-.598-.781-1.768-1.395-3.511-1.855v-1.86h18.639v1.86c-1.738.46-2.908 1.074-3.503 1.855-.6.779-.897 2.135-.897 4.057v61.498c0 1.877.297 3.224.897 4.02.595.805 1.765 1.437 3.503 1.89v1.863h-18.639v-1.863c1.743-.453 2.913-1.085 3.51-1.89.595-.796.894-2.143.894-4.02M730.346 219.85v57.233c0 1.877.288 3.224.86 4.02.572.805 1.753 1.437 3.543 1.89v1.863h-16.991v-1.863c1.79-.453 2.97-1.085 3.543-1.89.574-.796.86-2.143.86-4.02v-61.498c0-1.922-.298-3.278-.894-4.057-.598-.781-1.768-1.395-3.509-1.855v-1.86h25.036v1.86c-2.385.779-3.575 1.971-3.575 3.572 0 1.38.871 3.027 2.615 4.956l45.463 50.899v-53.515c0-1.922-.296-3.278-.892-4.057-.598-.781-1.764-1.395-3.507-1.855v-1.86h16.988v1.86c-1.743.46-2.912 1.074-3.507 1.855-.594.779-.893 2.135-.893 4.057v61.498c0 1.877.285 3.224.86 4.02.568.805 1.753 1.437 3.54 1.89v1.863h-20.153v-1.863c2.384-.593 3.574-1.533 3.574-2.814 0-.967-1.097-2.686-3.298-5.159l-49.663-55.17M881.397 248.947h-50.764v28.136c0 1.877.297 3.224.897 4.02.595.805 1.764 1.437 3.504 1.89v1.863h-18.637v-1.863c1.738-.453 2.909-1.085 3.506-1.89.596-.796.892-2.143.892-4.02v-61.498c0-1.922-.296-3.278-.892-4.057-.597-.781-1.768-1.395-3.506-1.855v-1.86h18.637v1.86c-1.74.46-2.91 1.074-3.504 1.855-.6.779-.897 2.135-.897 4.057v25.864h50.764v-25.864c0-1.922-.298-3.278-.894-4.057-.597-.781-1.766-1.395-3.509-1.855v-1.86h18.64v1.86c-1.743.46-2.91 1.087-3.505 1.891-.602.804-.896 2.141-.896 4.021v61.498c0 1.877.294 3.224.896 4.02.596.805 1.762 1.437 3.505 1.89v1.863h-18.64v-1.863c1.743-.453 2.912-1.085 3.51-1.89.595-.796.893-2.143.893-4.02v-28.136"
          fill="#c91e25"/>
</svg>